<?xml version="1.0" encoding="UTF-8" standalone="no"?>
<!-- Created with Inkscape (http://www.inkscape.org/) -->

<svg
   width="29.071505mm"
   height="44.766968mm"
   viewBox="0 0 29.071505 44.766968"
   version="1.1"
   id="svg1"
   xml:space="preserve"
   xmlns="http://www.w3.org/2000/svg"
   xmlns:svg="http://www.w3.org/2000/svg"><defs
     id="defs1" /><g
     id="g42"
     transform="translate(-81.668372,-30.294636)"><g
       id="g46"><path
         style="fill:#f6eee3"
         d="m 84.686111,75.011915 c -0.64427,-0.09816 -0.942224,-0.307528 -1.78769,-1.256208 -0.691772,-0.776222 -0.68855,-0.716976 -0.34224,-6.293765 0.327135,-5.268017 0.32038,-5.861445 -0.09624,-8.454108 -0.76183,-4.740957 -0.831851,-5.411197 -0.77726,-7.439936 0.02972,-1.104523 0.138258,-2.524714 0.277359,-3.629237 0.125691,-0.99804 0.229881,-2.018763 0.231534,-2.268273 0.0042,-0.639913 0.214957,-1.759978 0.397436,-2.112544 0.104841,-0.202562 0.240073,-0.3151 0.422484,-0.351582 0.175169,-0.03503 0.268285,-0.109031 0.268285,-0.2132 0,-0.09906 0.09459,-0.182215 0.24951,-0.219349 0.883479,-0.211761 1.119104,-0.226521 2.323623,-0.145557 0.705612,0.04743 1.584916,0.09791 1.954009,0.112188 l 0.671078,0.02595 0.113587,-0.40794 c 0.06247,-0.224366 0.204168,-1.142859 0.314878,-2.041095 0.168824,-1.369736 0.191318,-1.869547 0.139457,-3.098721 -0.06355,-1.506318 0.0011,-2.065831 0.269862,-2.334571 0.07353,-0.07353 0.133699,-0.175397 0.133699,-0.226362 0,-0.05096 0.132694,-0.282614 0.294876,-0.514776 0.162181,-0.232163 0.335704,-0.48939 0.385606,-0.571617 0.0499,-0.08223 0.113112,-0.169918 0.140468,-0.194869 0.02736,-0.02495 0.148876,-0.188267 0.270045,-0.362924 0.377204,-0.54371 1.078802,-1.117356 1.892447,-1.547319 1.330498,-0.703088 1.597425,-0.8547 1.628713,-0.925098 0.01663,-0.03743 0.128914,-0.06805 0.24951,-0.06805 0.120597,0 0.219267,-0.04083 0.219267,-0.09073 0,-0.118626 1.145869,-0.116227 1.905349,0.004 0.819599,0.129732 1.823745,0.446405 2.047294,0.645646 0.10302,0.09182 0.235714,0.166942 0.294875,0.166942 0.05916,0 0.107566,0.07169 0.107566,0.159313 0,0.08762 0.113532,0.209568 0.252293,0.270989 0.460917,0.204022 1.396359,1.997754 2.945819,5.64867 0.69851,1.645866 0.87815,2.229078 1.10388,3.583871 0.3189,1.913943 0.32976,1.952205 0.54155,1.908098 0.46583,-0.09701 3.36186,-0.244239 3.72705,-0.189475 0.22208,0.0333 0.52671,0.121877 0.67696,0.196832 0.39657,0.197833 1.50342,1.317207 1.68883,1.707935 0.20088,0.423312 0.17384,1.233245 -0.24246,7.264321 -0.062,0.898236 -0.11295,2.368077 -0.11321,3.266313 -5.1e-4,1.753035 -0.0259,1.589288 0.70256,4.536546 0.61894,2.504289 0.68927,3.488876 0.42774,5.988241 -0.0574,0.548922 -0.22769,2.42281 -0.37833,4.164195 -0.24674,2.85231 -0.29547,3.208748 -0.49162,3.595841 -0.20332,0.401237 -0.648,0.834076 -1.10028,1.071001 -0.22716,0.118996 -2.14145,0.349782 -5.06814,0.61101 -0.88925,0.07937 -18.365326,0.106605 -18.872031,0.02941 z M 100.25772,53.040763 c -0.0896,-0.08894 -0.10003,-0.07852 -0.0508,0.05079 0.0341,0.08948 0.0848,0.139836 0.11274,0.111901 0.0279,-0.02793 6e-5,-0.101146 -0.0619,-0.162692 z m -0.194,-10.123668 0.76992,-0.05936 0.0759,-0.362923 c 0.12583,-0.601931 0.23906,-2.238047 0.18838,-2.721928 -0.0654,-0.624534 -0.43067,-1.493773 -1.254914,-2.98647 -0.167654,-0.30362 -0.398052,-0.776595 -0.511996,-1.051056 -0.226395,-0.545326 -0.858976,-1.54483 -1.050827,-1.660348 -0.06628,-0.03991 -0.1205,-0.131771 -0.1205,-0.204144 0,-0.07237 -0.07145,-0.209625 -0.15878,-0.305004 -0.08733,-0.09538 -0.424167,-0.481278 -0.74853,-0.857556 -0.591389,-0.686042 -0.869328,-0.865865 -1.118697,-0.723785 -0.07359,0.04193 -0.344616,0.259965 -0.602278,0.484524 -0.636825,0.55501 -1.80755,1.248927 -2.600585,1.541428 -0.520189,0.191865 -0.668876,0.758543 -0.894502,3.409152 -0.08044,0.944978 -0.183519,1.963116 -0.229066,2.262528 -0.203016,1.334566 -0.365618,3.071811 -0.294198,3.143231 0.217141,0.217141 6.104853,0.280293 8.550703,0.09171 z"
         id="path46" /><path
         style="fill:#eee5d6"
         d="m 85.090557,75.018885 c -0.671592,-0.07822 -1.344638,-0.359432 -1.541865,-0.644227 -0.07305,-0.105481 -0.289124,-0.360269 -0.48017,-0.566195 -0.496348,-0.535011 -0.614404,-0.808533 -0.670795,-1.554147 l -0.04988,-0.659574 0.534017,-0.05375 c 0.293709,-0.02956 1.330181,-0.07786 2.30327,-0.107323 2.118181,-0.06414 3.893704,-0.256961 5.39849,-0.586272 2.080031,-0.455198 3.033163,-0.716247 3.500783,-0.958816 0.128958,-0.06689 0.428949,-0.16521 0.666647,-0.218479 0.237697,-0.05327 0.49436,-0.159036 0.570362,-0.235038 0.076,-0.076 0.25575,-0.161698 0.399441,-0.190436 0.143691,-0.02874 0.261256,-0.08613 0.261256,-0.12753 0,-0.0414 0.146411,-0.102745 0.325358,-0.136315 0.178947,-0.03357 0.433701,-0.161446 0.566119,-0.284168 0.132419,-0.122721 0.371404,-0.277715 0.531078,-0.344431 0.159674,-0.06672 0.515611,-0.287737 0.790971,-0.491157 0.275359,-0.20342 0.543226,-0.369855 0.595259,-0.369855 0.05203,0 0.0946,-0.05849 0.0946,-0.129982 0,-0.07149 0.07145,-0.152826 0.158779,-0.180746 0.08733,-0.02792 0.519696,-0.428753 0.960813,-0.890741 1.09916,-1.151147 1.08405,-1.132633 1.01509,-1.24422 -0.0337,-0.0546 -0.0224,-0.08805 0.0252,-0.07434 0.0994,0.02863 0.56206,-0.440156 0.56206,-0.569495 0,-0.04733 0.0396,-0.08606 0.0879,-0.08606 0.0483,0 0.0644,-0.06124 0.0357,-0.136097 -0.0287,-0.07485 -0.008,-0.136096 0.0463,-0.136096 0.0542,0 0.21629,-0.251437 0.36028,-0.558748 0.15829,-0.337813 0.2818,-0.508224 0.31236,-0.430972 0.033,0.08352 0.053,0.06336 0.0577,-0.05822 0.004,-0.102299 0.0423,-0.224786 0.0852,-0.272193 0.0429,-0.04741 0.1549,-0.305623 0.24881,-0.573814 0.0939,-0.268191 0.22187,-0.507235 0.28435,-0.53121 0.0625,-0.02398 0.0963,-0.0716 0.0751,-0.105838 -0.0212,-0.03424 0.10452,-0.489283 0.27929,-1.011215 0.43861,-1.309861 0.76249,-2.773424 0.94287,-4.260648 0.0515,-0.424167 0.13144,-0.893699 0.17777,-1.043405 0.13693,-0.442519 0.2799,-3.403653 0.32855,-6.804819 0.025,-1.746571 0.0629,-3.262238 0.0844,-3.36815 0.009,-0.09163 0.0253,-1.012127 0.0505,-1.111774 l 0.0157,-0.62386 c 0,0 -0.0186,-0.138102 -3e-5,-0.38507 0.01,-0.129748 0.13391,-0.168641 0.68768,-0.215451 1.00171,-0.08468 1.62839,-0.0698 2.02149,0.04797 0.55425,0.166058 0.48641,0.240191 0.48641,0.240191 0,0 0.0724,-0.03294 0.91622,0.797397 0.8601,0.846376 0.8427,0.5902 0.44331,6.52408 -0.40276,5.984097 -0.41582,5.725715 0.46296,9.163823 0.58593,2.292393 0.69446,3.542604 0.49226,5.670683 -0.0498,0.523971 -0.172,1.89174 -0.27159,3.039486 -0.44574,5.136916 -0.40517,4.895608 -0.92822,5.521342 -0.58005,0.69393 -0.70951,0.726322 -4.60768,1.152881 -1.34249,0.146903 -11.672669,0.268117 -13.337448,0.156502 -1.226994,-0.08226 -5.288365,-0.04539 -5.637019,0.05118 -0.06842,0.01895 -0.391512,0.0033 -0.717988,-0.03468 z m 12.795908,-9.274274 c -0.09888,-0.162182 -0.179941,-0.327907 -0.180128,-0.368279 -1.86e-4,-0.04037 -0.04218,-0.04754 -0.09332,-0.01594 -0.05114,0.0316 -0.08176,0.01848 -0.06805,-0.02916 0.03289,-0.114287 -0.490038,-1.015637 -0.589236,-1.015637 -0.04236,0 -0.05179,-0.04083 -0.02095,-0.09073 0.03084,-0.0499 0.01177,-0.07034 -0.03245,-0.09073 0,0 -0.132498,-0.229109 -0.275067,-0.502378 -0.213513,-0.322318 -0.191908,-0.425348 0.18819,-1.050084 0.311406,-0.511831 0.369354,-0.625077 0.369354,-0.625077 0,0 0.621949,-1.203945 0.572417,-1.333023 -0.04431,-0.115476 -0.02988,-0.123167 0.07219,-0.03846 0.09983,0.08285 0.139812,0.074 0.183833,-0.04072 0.03094,-0.08063 0.0375,-0.176939 0.01459,-0.214021 -0.02292,-0.03708 0.01778,-0.06742 0.09044,-0.06742 0.07266,0 0.132731,0.04423 0.133495,0.09829 7.64e-4,0.05406 0.04097,0.03705 0.08934,-0.03781 0.0758,-0.117287 0.08814,-0.114892 0.08934,0.01733 7.64e-4,0.08438 -0.0318,0.173935 -0.07236,0.199003 -0.06016,0.03718 -0.187669,0.881716 -0.02928,0.895123 0.206928,0.01752 0.739226,0.04872 1.35058,0.06199 0.511497,0.009 0.929997,-0.0053 0.929997,-0.03193 0,-0.125279 -0.34048,-0.589329 -0.3935,-0.53631 -0.0331,0.03309 -0.0603,-0.01809 -0.0604,-0.11374 -2.3e-4,-0.166482 -0.90164,-1.497778 -0.95977,-1.58023 L 99.11836,59.12494 c -0.0087,-0.01235 0.02347,-0.163366 -0.03136,-0.129481 -0.04957,0.03064 -0.111005,-0.0241 -0.136511,-0.121632 -0.02551,-0.09754 -0.01994,-0.170483 0.01237,-0.162101 0.08495,0.02204 0.865107,-0.392866 0.93083,-0.495035 0.03053,-0.04746 0.07136,-0.08396 0.09073,-0.08111 0.159741,0.02352 0.430191,-0.120792 0.382571,-0.204148 -0.0324,-0.0567 -0.0269,-0.07423 0.0123,-0.03894 0.10902,0.09831 0.79144,-0.280941 0.71834,-0.399216 -0.0348,-0.05625 -0.0219,-0.07614 0.0289,-0.04475 0.10734,0.06634 0.66243,-0.126259 0.66243,-0.229838 0,-0.03896 0.06,-0.07084 0.13325,-0.07084 0.0812,0 0.11283,-0.05319 0.081,-0.136097 -0.0287,-0.07485 -0.016,-0.136096 0.0283,-0.136096 0.0443,0 0.12819,0.126218 0.18642,0.280484 0.0584,0.154605 0.14826,0.254289 0.20032,0.222115 0.0567,-0.03507 0.0729,-0.0022 0.0404,0.08244 -0.0297,0.07744 -0.009,0.140808 0.0464,0.140808 0.0552,0 0.093,0.03062 0.0838,0.06805 -0.0259,0.106 0.40682,0.929991 0.48834,0.929991 0.04,0 0.0726,0.06365 0.0726,0.141452 0,0.0778 0.0404,0.116506 0.0897,0.08602 0.0516,-0.03188 0.0665,0.0049 0.0352,0.08653 -0.03,0.07808 -0.0127,0.19248 0.0383,0.254222 0.10178,0.123108 0.0851,0.732391 -0.0279,1.019568 -0.0393,0.0998 -0.16952,0.314155 -0.28944,0.476337 -0.11991,0.162181 -0.19084,0.294875 -0.15761,0.294875 0.0332,0 -0.005,0.09993 -0.0851,0.222074 -0.0805,0.122804 -0.11879,0.291688 -0.0857,0.377807 0.0393,0.102456 0.025,0.134253 -0.0418,0.09294 -0.10499,-0.06489 -0.29322,0.202249 -0.29078,0.412664 l -0.44313,0.647131 c -0.18477,0.333577 -0.2744,0.600642 -0.24361,0.725847 0.0666,0.270916 -0.0119,-0.02873 -0.14361,-0.02873 -0.0487,0 -0.0633,0.04083 -0.0325,0.09073 0.0308,0.0499 0.0136,0.09073 -0.0383,0.09073 -0.0519,0 -0.11998,0.102072 -0.15129,0.226828 -0.0313,0.124755 -0.0977,0.226827 -0.14753,0.226827 -0.0498,0 -0.0663,0.06336 -0.0366,0.140809 0.0353,0.092 0.0176,0.118289 -0.0511,0.07585 -0.0708,-0.04378 -0.0856,-0.01419 -0.0454,0.09073 0.034,0.08854 0.0228,0.132845 -0.026,0.102724 -0.0471,-0.02913 -0.1524,0.04881 -0.23391,0.173212 -0.0815,0.124399 -0.22679,0.251126 -0.32286,0.281616 -0.0961,0.03049 -0.14956,0.09606 -0.11887,0.145703 0.0307,0.04965 6.5e-4,0.0827 -0.0667,0.07345 -0.0674,-0.0092 -0.565261,-0.01198 -1.10639,-0.0061 l -0.983871,0.01075 0.06239,0.453655 c 0.07406,0.538449 -0.04951,0.600039 -0.318553,0.158779 z m 3.877855,-4.296488 c -0.0301,-0.03015 -0.10841,-0.03337 -0.1739,-0.0072 -0.0724,0.02896 -0.0509,0.05046 0.0548,0.05482 0.0957,0.0039 0.14924,-0.0175 0.11909,-0.04765 z m -10.019789,3.028394 c -0.0534,-0.103198 -0.184067,-0.13049 -0.23578,-0.09853 -0.05727,0.03539 -0.07181,2.25e-4 -0.0372,-0.08997 0.06663,-0.173639 -0.07772,-0.299832 -0.150731,-0.131769 -0.02723,0.06269 -0.03031,0.01191 -0.0068,-0.112848 0.02347,-0.124755 0.003,-0.287872 -0.04538,-0.362482 -0.0082,-0.003 -0.268792,-0.23211 -0.278886,-0.225876 -0.09434,-0.0203 -0.193236,-0.355651 -0.193236,-0.355651 0,0 -0.03207,-0.165732 -0.07959,-0.221615 -0.0073,-0.0086 -0.288634,-0.562772 -0.288634,-0.562772 l -0.06686,-0.136852 c -0.07236,-0.09691 -0.235673,-0.297123 -0.362924,-0.444923 -0.127251,-0.147801 -0.158061,-0.212714 -0.06847,-0.144253 0.156538,0.119616 0.156611,0.113523 0.0019,-0.156086 -0.130893,-0.228068 -0.185597,-0.260494 -0.292376,-0.173306 -0.110969,0.09061 -0.116017,0.07953 -0.03252,-0.07138 0.078,-0.14098 0.06156,-0.23099 -0.078,-0.426981 -0.410962,-0.577143 -0.634124,-1.39836 -0.468765,-1.67104 l 0.198823,-0.327864 c 0,0 0.130472,-0.360727 0.278883,-0.612433 0.184516,-0.420343 0.141505,-0.59488 0.285191,-0.668608 -0.324062,0.03683 -0.323535,-0.151549 -0.668978,-0.197898 -0.425167,-0.01949 -0.527133,-0.107801 -0.214943,-0.186156 0.130298,-0.0327 0.220561,-0.08591 0.200584,-0.118229 -0.01998,-0.03232 0.684604,-0.05012 1.565736,-0.03955 1.274339,0.01529 1.621654,-0.0065 1.697858,-0.106268 0.06968,0.0915 0.06498,0.146353 0.280441,0.560969 0.3333,0.641386 0.447823,0.758563 0.531072,0.683124 0.04095,-0.03711 0.04611,-0.0181 0.01147,0.04225 -0.03464,0.06035 -0.01285,0.190007 0.04843,0.288131 0.103199,0.165248 0.120158,0.167193 0.229929,0.02637 0.103017,-0.132156 0.108291,-0.122482 0.04034,0.07399 -0.05806,0.167867 -0.04056,0.257147 0.06802,0.346969 0.08041,0.06652 0.09092,0.09247 0.02337,0.05768 -0.08403,-0.04328 -0.07357,0.01191 0.03312,0.174733 0.08577,0.1309 0.187316,0.237999 0.225661,0.237999 0.03835,0 0.08964,0.09186 0.113994,0.204144 0.02435,0.11228 0.07612,0.280307 0.115033,0.373394 0.06122,0.146429 0.04148,0.159957 -0.1464,0.100327 -0.202863,-0.06439 -0.208246,-0.05761 -0.08177,0.102943 0.124791,0.158418 0.123038,0.162188 -0.0224,0.04817 -0.08678,-0.06803 -0.142431,-0.149689 -0.12367,-0.181461 0.01876,-0.03177 -0.1264,-0.170948 -0.322579,-0.30928 l -0.35669,-0.251511 -0.09558,0.274194 c -0.05257,0.150807 -0.134829,0.274194 -0.182794,0.274194 -0.04797,0 -0.06157,0.0415 -0.03022,0.09221 0.03135,0.05072 0.09453,0.06901 0.140412,0.04065 0.04588,-0.02836 0.05911,0.01181 0.02939,0.08925 -0.02972,0.07744 -0.0929,0.140809 -0.140412,0.140809 -0.04751,0 -0.06114,-0.04083 -0.0303,-0.09073 0.03084,-0.0499 0.0081,-0.09073 -0.05059,-0.09073 -0.06138,0 -0.08687,0.07573 -0.06003,0.17836 0.02649,0.101295 0.0041,0.1699 -0.05176,0.158779 -0.05412,-0.01077 -0.168398,0.123321 -0.253945,0.297978 -0.144044,0.294088 -0.144465,0.322116 -0.0057,0.379229 0.108821,0.04479 0.08419,0.06342 -0.08997,0.06805 -0.131891,0.0035 -0.263754,0.06879 -0.293027,0.145077 -0.04675,0.121826 0.08728,0.131505 1.101747,0.07956 0.635234,-0.03253 1.318286,-0.05945 1.517894,-0.05983 1.032464,-0.04549 0.48248,1.087566 0.460447,1.863893 -0.0218,0.882193 -0.06034,1.637474 -0.08563,1.678402 -0.02529,0.04093 -0.479047,0.08113 -1.008337,0.08933 -0.52929,0.0082 -1.001357,0.03903 -1.049039,0.0685 -0.04768,0.02947 -0.03855,-0.02071 -0.08669,-0.04251 -0.02546,-0.01153 -0.988533,-0.428014 -1.062139,-0.570266 z M 103.094,58.015093 c -0.0276,-0.07194 -0.0342,-0.204632 -0.0147,-0.294875 0.0222,-0.102455 0.0532,-0.05333 0.0827,0.130796 0.0494,0.308985 0.0173,0.386443 -0.068,0.164079 z m -0.29271,-0.141396 c 0,-0.124755 0.0206,-0.175791 0.0458,-0.113414 0.0252,0.06238 0.0252,0.16445 0,0.226828 -0.0252,0.06238 -0.0458,0.01134 -0.0458,-0.113414 z m -9.858636,-0.181462 c -0.03084,-0.0499 -0.01284,-0.09073 0.04001,-0.09073 0.05285,0 0.09609,0.04083 0.09609,0.09073 0,0.0499 -0.01801,0.09073 -0.04001,0.09073 -0.02201,0 -0.06524,-0.04083 -0.09608,-0.09073 z m 7.666766,-0.181462 c 0.0748,-0.04837 0.17692,-0.08795 0.22682,-0.08795 0.0499,0 0.0295,0.03958 -0.0454,0.08795 -0.0749,0.04837 -0.17693,0.08795 -0.22683,0.08795 -0.0499,0 -0.0295,-0.03958 0.0454,-0.08795 z m 1.73105,-0.41585 c 0.004,-0.105696 0.0259,-0.127195 0.0548,-0.05482 0.0262,0.0655 0.023,0.143752 -0.007,0.173901 -0.0302,0.03015 -0.0516,-0.02344 -0.0477,-0.119085 z m -5.073842,-0.468495 c -0.811616,-0.02551 -0.923497,-0.04744 -0.828152,-0.162327 0.06063,-0.07306 0.189307,-0.13283 0.285946,-0.13283 0.09664,0 0.150473,-0.04083 0.119632,-0.09073 -0.05546,-0.08973 0.06651,-0.128011 0.303981,-0.09541 0.07586,0.01041 0.0961,-0.02592 0.05316,-0.0954 -0.04981,-0.0806 -0.02185,-0.09399 0.09922,-0.04753 0.155078,0.05951 0.157218,0.05166 0.02672,-0.09799 -0.07802,-0.08948 -0.121469,-0.219403 -0.09656,-0.288727 0.02712,-0.07547 0.0052,-0.101284 -0.05454,-0.06434 -0.05893,0.03642 -0.123487,-0.03251 -0.157546,-0.168206 -0.03216,-0.128129 -0.09979,-0.203899 -0.152775,-0.171153 -0.05483,0.03389 -0.06816,0.01521 -0.03149,-0.04412 0.05773,-0.09341 -0.07418,-0.448896 -0.207904,-0.560279 -0.02996,-0.02495 -0.129827,-0.20806 -0.221935,-0.406908 l -0.167469,-0.361543 -0.666008,1.312437 c -0.408426,0.804848 -0.633386,1.2407 -0.633386,1.2407 0,0 0.04001,0.189685 -0.102551,0.190885 -0.142558,0.0012 -0.453748,-0.116189 -0.691532,-0.260852 -0.237784,-0.144663 -0.450089,-0.263023 -0.471789,-0.263023 -0.0217,0 -0.229471,-0.128242 -0.461716,-0.284982 -0.345831,-0.233398 -0.438527,-0.262138 -0.512127,-0.158779 -0.06967,0.09784 -0.07809,0.08975 -0.03747,-0.03601 0.0337,-0.104343 -0.0037,-0.183454 -0.104854,-0.221751 -0.08649,-0.03275 -0.211578,-0.113233 -0.277978,-0.178861 -0.0664,-0.06563 -0.153988,-0.09877 -0.194638,-0.07365 -0.04065,0.02512 -0.09732,-0.01533 -0.125934,-0.0899 -0.02861,-0.07457 -0.104342,-0.13495 -0.168286,-0.134186 -0.09089,0.0011 -0.08985,0.01813 0.0048,0.0781 0.100231,0.06354 0.0996,0.08494 -0.0037,0.124569 -0.08845,0.03394 -0.12369,-0.02833 -0.121219,-0.214201 0.0019,-0.14413 0.03896,-0.262054 0.08231,-0.262054 0.04336,0 0.05686,-0.08399 0.03002,-0.186647 -0.04221,-0.161428 -0.02938,-0.170623 0.095,-0.06805 0.129319,0.106647 0.131675,0.09574 0.02337,-0.108228 -0.108156,-0.203693 -0.105823,-0.214773 0.02288,-0.108637 0.120895,0.0997 0.151814,0.09143 0.197604,-0.05284 0.02986,-0.09407 0.192946,-0.401305 0.362423,-0.682749 0.282292,-0.468793 0.292537,-0.510024 0.122127,-0.491544 -0.102307,0.01109 -0.203828,-0.04107 -0.225604,-0.115924 -0.03519,-0.120974 -0.02874,-0.120974 0.05805,0 0.07852,0.109441 0.112595,0.112946 0.174001,0.01789 0.042,-0.06501 0.11345,-0.111213 0.158779,-0.102669 0.191211,0.03604 0.254381,-0.01538 0.127782,-0.104019 -0.104944,-0.07348 -0.08677,-0.08132 0.07941,-0.03426 0.133779,0.03788 0.194364,0.02682 0.159756,-0.02918 -0.03066,-0.04961 0.01526,-0.08461 0.102052,-0.07777 0.08679,0.0068 0.149266,-0.03358 0.138832,-0.08984 -0.01383,-0.07456 0.78538,-0.09615 2.948755,-0.07967 1.067152,0.156233 2.286367,-0.315104 3.228805,0.209332 0.178562,0.2889 0.61696,0.755607 0.69758,0.960345 0.0939,0.238394 0.23406,0.302722 0.34024,0.26882 0.11123,-0.03551 0.12113,-0.02596 0.0364,0.03506 -0.10087,0.07262 -0.0695,0.386911 0.0386,0.386911 0.10253,0 0.47985,-0.299678 0.44609,-0.354295 -0.0212,-0.03424 0.0677,-0.0604 0.19738,-0.05812 0.12971,0.0023 0.25475,0.06085 0.27785,0.130173 0.0231,0.06932 0.005,0.103164 -0.0403,0.0752 -0.0452,-0.02796 -0.15181,0.07034 -0.23682,0.218455 -0.0909,0.158441 -0.1086,0.242847 -0.0429,0.205045 0.0614,-0.03534 0.0273,0.0342 -0.0758,0.154522 -0.25381,0.296304 -0.53428,0.753961 -0.41804,0.682121 0.0516,-0.03191 0.12342,-0.01021 0.15953,0.04821 0.041,0.06635 0.0263,0.08192 -0.0391,0.04149 -0.0576,-0.03561 -0.10475,-0.01909 -0.10475,0.0367 0,0.05579 -0.0345,0.08009 -0.0768,0.054 -0.0422,-0.02609 -0.17491,0.165436 -0.29487,0.425617 -0.11997,0.260182 -0.24874,0.486667 -0.28617,0.503301 -0.0374,0.01663 -0.068,0.08274 -0.068,0.146907 0,0.148612 -0.515348,0.234219 -1.27023,0.211005 -0.324363,-0.01 -1.012027,-0.03141 -1.528141,-0.04763 z m -5.406941,-2.809025 c -0.04924,-0.129309 -0.03882,-0.139731 0.05079,-0.05079 0.06201,0.06155 0.08988,0.134757 0.06195,0.162692 -0.02793,0.02793 -0.07867,-0.02242 -0.11274,-0.111902 z M 90.871667,42.93407 c -0.0608,-0.0608 -0.522673,-0.09225 -1.632354,-0.111165 l -0.61846,-0.01054 0.02871,-0.24951 0.02871,-0.24951 1.062484,0.01985 c 0.584366,0.01092 1.082477,-0.0125 1.106912,-0.05204 0.08405,-0.135997 0.504944,-4.185393 0.642647,-6.182883 0.111458,-1.616783 0.436103,-2.496004 0.960343,-2.600852 0.143589,-0.02872 0.307815,-0.108537 0.364946,-0.177376 0.05713,-0.06884 0.178124,-0.125162 0.268873,-0.125162 0.09075,0 0.187301,-0.03609 0.214561,-0.08019 0.02726,-0.04411 0.223607,-0.166829 0.436326,-0.272715 0.569553,-0.283506 0.713829,-0.383176 1.094575,-0.756159 0.682179,-0.668271 1.042152,-0.750062 1.526306,-0.346795 l 0.215617,0.179594 -0.272192,0.0034 c -0.199167,0.0025 -0.423426,0.138337 -0.835885,0.506279 -0.558645,0.49835 -1.773525,1.234277 -2.385063,1.444778 -0.653043,0.224787 -0.913237,1.007272 -1.086881,3.268582 -0.05748,0.74853 -0.159483,1.850911 -0.226677,2.449735 -0.06719,0.598824 -0.169558,1.537889 -0.227475,2.086811 -0.05792,0.548922 -0.125503,1.069491 -0.150193,1.15682 -0.04381,0.154953 -0.392886,0.221965 -0.515828,0.09902 z m 10.133983,-0.165701 c -0.13167,-0.343126 0.019,-0.40966 0.92783,-0.40966 h 0.87613 l -0.0637,-0.294875 c -0.035,-0.162182 -0.0828,-0.458191 -0.10607,-0.657799 -0.0811,-0.695259 -0.53385,-2.903605 -0.60141,-2.933634 -0.0374,-0.01663 -0.068,-0.09987 -0.068,-0.18496 0,-0.08509 -0.0817,-0.314884 -0.18146,-0.510643 -0.0998,-0.19576 -0.18146,-0.395074 -0.18146,-0.44292 0,-0.04785 -0.12856,-0.376052 -0.28568,-0.729346 -0.15712,-0.353294 -0.35775,-0.805668 -0.44585,-1.005276 -0.0881,-0.199608 -0.24535,-0.554621 -0.34945,-0.788918 -0.10409,-0.234297 -0.18926,-0.486075 -0.18926,-0.559508 0,-0.07343 -0.0306,-0.147122 -0.068,-0.163756 -0.0926,-0.04118 -0.660709,-1.181581 -0.659095,-1.32316 7.11e-4,-0.06238 -0.03954,-0.113413 -0.08944,-0.113413 -0.0499,0 -0.09073,-0.05555 -0.09073,-0.123436 0,-0.06789 -0.104091,-0.27682 -0.231312,-0.464292 -0.254924,-0.375651 -0.243511,-0.476583 0.03692,-0.326501 0.385284,0.206198 1.507127,2.485627 3.062197,6.221988 0.48591,1.167479 0.78049,2.311453 1.0363,4.024397 0.0881,0.589986 0.089,0.773046 0.004,0.825558 -0.15039,0.09295 -0.55079,0.0061 -0.55249,-0.119842 -8.8e-4,-0.06537 -0.0285,-0.06015 -0.0757,0.01433 -0.0475,0.07493 -0.35856,0.132657 -0.86288,0.16015 -0.64807,0.03533 -0.79794,0.0185 -0.84129,-0.09448 z m 0.24602,-5.362056 c 0.004,-0.105696 0.0258,-0.127196 0.0548,-0.05482 0.0262,0.0655 0.023,0.143751 -0.007,0.1739 -0.0301,0.03015 -0.0516,-0.02344 -0.0476,-0.119084 z"
         id="path45" /><path
         style="fill:#258c46"
         d="m 97.38844,64.785482 c -0.399216,-0.665607 -0.758859,-1.279971 -0.799206,-1.365255 -0.05315,-0.112338 0.140697,-0.527926 0.703548,-1.508361 0.427298,-0.744315 0.82282,-1.395998 0.878937,-1.448184 0.07517,-0.06991 0.08738,0.05439 0.04637,0.472184 l -0.05566,0.567068 h 1.930131 c 1.72635,0 1.96634,-0.01845 2.27293,-0.174764 l 0.34279,-0.174763 -0.12519,0.197446 c -0.0688,0.108596 -0.50112,0.854087 -0.96059,1.656647 -0.45948,0.80256 -0.9479,1.566972 -1.08539,1.698693 -0.2631,0.252063 -1.033456,0.420351 -1.94175,0.424181 l -0.42623,0.0018 -0.02742,0.431752 -0.02742,0.431753 z m -4.873035,0.07555 C 91.43149,64.53429 91.026057,63.327869 91.610944,62.169683 l 0.281851,-0.558118 0.933204,-0.05358 c 0.513262,-0.02947 1.208799,-0.06577 1.545638,-0.08068 l 0.612433,-0.02711 -4.12e-4,0.729532 c -2.27e-4,0.401243 -0.02688,1.188858 -0.05923,1.750255 l -0.05882,1.020723 -1.052226,-0.0078 c -0.578724,-0.0043 -1.162816,-0.04113 -1.297983,-0.08188 z M 90.404522,62.16291 c -1.210844,-2.091577 -1.340501,-2.375525 -1.274967,-2.792151 0.0314,-0.199608 0.239475,-0.705804 0.462395,-1.124881 0.22292,-0.419077 0.394339,-0.770845 0.380931,-0.781709 -0.01341,-0.01086 -0.187693,-0.09669 -0.387301,-0.190717 l -0.362923,-0.170966 0.952674,-0.05693 c 0.523971,-0.03131 1.238478,-0.06183 1.587792,-0.06781 l 0.635116,-0.01088 0.628855,1.111214 c 0.345871,0.611167 0.732409,1.294362 0.858974,1.518211 l 0.230119,0.406998 -0.314589,-0.20775 c -0.407506,-0.26911 -0.713952,-0.418587 -0.76123,-0.371309 -0.03436,0.03436 -1.042457,1.759904 -1.57509,2.696062 -0.122208,0.214793 -0.248088,0.593439 -0.279734,0.841436 l -0.05754,0.450904 z m 9.591161,-1.868247 c -0.397712,-0.614648 -0.76893,-1.203152 -0.824928,-1.307786 -0.09556,-0.178565 -0.01229,-0.238488 1.356425,-0.976087 0.80203,-0.432214 1.50588,-0.76753 1.56412,-0.745149 0.0582,0.02238 0.32671,0.403118 0.59661,0.846079 0.40484,0.664429 0.49802,0.896112 0.53237,1.323781 0.055,0.685086 -0.0125,0.914061 -0.39441,1.33675 -0.37468,0.414726 -0.9496,0.639954 -1.63356,0.639954 h -0.47351 z m -6.02202,-4.136845 c -0.381067,-0.23672 -1.026537,-0.642254 -1.434378,-0.901186 l -0.741529,-0.470784 0.390972,-0.730807 c 0.44965,-0.840487 0.886795,-1.390503 1.257517,-1.582211 0.393361,-0.203415 1.153516,-0.16854 1.578971,0.07244 0.392504,0.222316 0.924566,0.858311 1.013078,1.210974 0.04208,0.167639 -0.110721,0.550439 -0.612495,1.53448 -0.367706,0.721116 -0.68897,1.308054 -0.713921,1.304308 -0.02495,-0.0037 -0.357148,-0.200493 -0.738215,-0.437214 z m 2.643564,0.351228 c 0.07485,-0.05173 0.289205,-0.174969 0.476337,-0.273857 0.187133,-0.09889 0.340241,-0.22717 0.340241,-0.285071 0,-0.0579 -0.394636,-0.794346 -0.876968,-1.636546 -0.809576,-1.413596 -0.971688,-1.631792 -1.449524,-1.950997 -0.136289,-0.09104 0.222698,-0.108368 1.872838,-0.09038 1.767247,0.01926 2.081732,0.0442 2.341382,0.18563 0.255873,0.139375 0.721307,0.756227 1.247647,1.653531 0.0901,0.153611 0.11715,0.14902 0.4485,-0.07613 0.19393,-0.131783 0.36534,-0.226867 0.38091,-0.211298 0.0156,0.01557 -0.31233,0.637128 -0.72867,1.381243 l -0.756979,1.352937 -1.715905,0.0225 c -1.205398,0.01581 -1.675415,-0.0055 -1.579809,-0.07156 z"
         id="path44" /><path
         style="fill:#05792b"
         d="m 97.852529,65.452921 c -0.08059,-0.122999 -0.146531,-0.259653 -0.146531,-0.303675 0,-0.04402 -0.08166,-0.174193 -0.181462,-0.289268 -0.0998,-0.115075 -0.181462,-0.264223 -0.181462,-0.331441 0,-0.06722 -0.03191,-0.122213 -0.07091,-0.122213 -0.039,0 -0.207089,-0.257547 -0.373534,-0.572325 l -0.302628,-0.572326 0.301766,-0.539128 c 0.16597,-0.296521 0.334061,-0.552739 0.373534,-0.569373 0.03947,-0.01663 0.07177,-0.06937 0.07177,-0.1172 0,-0.04783 0.18373,-0.400824 0.408289,-0.784438 l 0.40829,-0.697481 v 0.519806 0.519806 h 1.862899 c 1.40357,0 1.93889,-0.03175 2.1711,-0.128773 l 0.30819,-0.128773 -0.20392,0.378283 c -0.11216,0.208056 -0.44052,0.786572 -0.72969,1.285592 -1.1115,1.918157 -1.17113,1.965111 -2.5875,2.037734 l -0.957176,0.04908 0.02952,0.294876 c 0.03537,0.353343 -0.0061,0.368062 -0.200548,0.07124 z m -5.45429,-0.727513 c -0.406436,-0.178835 -0.827951,-0.62165 -0.953305,-1.001475 -0.147494,-0.446913 -0.07357,-0.922201 0.239667,-1.540814 0.194011,-0.383158 0.297063,-0.498327 0.417675,-0.466787 0.08806,0.02303 0.137237,0.0049 0.109272,-0.0404 -0.02903,-0.04698 0.315477,-0.08227 0.803143,-0.08227 0.469694,0 1.111828,-0.02695 1.426964,-0.05989 0.514251,-0.05375 0.566945,-0.04417 0.514142,0.09343 -0.03236,0.08432 -0.06287,0.75433 -0.06781,1.4889 -0.01284,1.911804 0.09852,1.745298 -1.161308,1.73647 -0.661297,-0.0046 -1.158031,-0.05218 -1.328445,-0.127169 z m -1.633157,-2.060523 c -0.149706,-0.259423 -0.398132,-0.69844 -0.552059,-0.975593 -0.153927,-0.277154 -0.396063,-0.708061 -0.53808,-0.957571 -0.573566,-1.0077 -0.59897,-1.13122 -0.356931,-1.73549 0.207701,-0.518541 0.601947,-1.249189 0.714084,-1.323397 0.121244,-0.08024 -0.06276,-0.275521 -0.446516,-0.473894 -0.256189,-0.132431 -0.183909,-0.140736 1.229404,-0.141262 1.552257,-5.78e-4 1.719351,0.0364 1.719351,0.380511 0,0.08982 0.03393,0.163315 0.0754,0.163315 0.04147,0 0.133334,0.112163 0.204144,0.249251 0.07081,0.137087 0.315485,0.555584 0.543721,0.929992 0.59373,0.973975 0.609983,1.046206 0.173397,0.770602 -0.446566,-0.281905 -0.521451,-0.281805 -0.650247,8.7e-4 -0.05684,0.124755 -0.140034,0.226827 -0.184871,0.226827 -0.04484,0 -0.05629,0.04083 -0.02545,0.09073 0.03084,0.0499 0.0176,0.09073 -0.02943,0.09073 -0.04703,0 -0.108378,0.07145 -0.136336,0.158779 -0.111181,0.34728 -0.690043,1.246042 -0.787448,1.22262 -0.05702,-0.01371 -0.0801,0.01322 -0.05128,0.05986 0.07917,0.128093 -0.0443,0.380745 -0.153173,0.313454 -0.05238,-0.03237 -0.07029,-0.01849 -0.0398,0.03085 0.03049,0.04934 -0.03023,0.262859 -0.134931,0.474487 -0.104705,0.211628 -0.215211,0.504305 -0.245568,0.650394 l -0.0552,0.265614 z m 9.390648,-2.264323 c -0.32436,-0.502768 -0.683631,-1.057217 -0.798377,-1.232111 -0.114746,-0.174894 -0.194637,-0.331981 -0.177536,-0.349082 0.0171,-0.0171 0.335543,-0.191158 0.707649,-0.386794 1.015064,-0.533673 1.740384,-0.928458 1.977344,-1.076255 0.11661,-0.07273 0.22112,-0.118769 0.23225,-0.102306 0.21095,0.312016 0.86473,1.48242 0.97968,1.75382 0.20184,0.476568 0.2003,0.762864 -0.007,1.240028 -0.3129,0.721339 -0.90935,1.075978 -1.79996,1.070216 l -0.52462,-0.0034 z M 93.841922,55.984715 C 93.39721,55.690481 92.890454,55.377213 92.715797,55.288564 92.54114,55.199915 92.286489,55.04881 92.149906,54.952775 l -0.248332,-0.174609 0.237549,-0.470997 c 0.130651,-0.259049 0.28323,-0.500994 0.339063,-0.537657 0.05583,-0.03666 0.0662,-0.06728 0.02303,-0.06805 -0.09902,-0.0018 0.158674,-0.398445 0.50873,-0.78313 0.674362,-0.741074 1.768029,-0.721288 2.448961,0.0443 0.136406,0.153366 0.329139,0.430213 0.428295,0.615217 l 0.180283,0.33637 -0.64308,1.231206 c -0.353694,0.677163 -0.672519,1.263392 -0.7085,1.30273 -0.03598,0.03934 -0.429274,-0.169213 -0.873985,-0.463446 z m 3.098806,0.446903 c -0.02757,-0.04461 0.116878,-0.147939 0.321002,-0.229612 0.268226,-0.107323 0.347191,-0.179173 0.284785,-0.259127 -0.04749,-0.06085 -0.23148,-0.376016 -0.408865,-0.700379 -0.177386,-0.324363 -0.494956,-0.895968 -0.705712,-1.270233 -0.210756,-0.374265 -0.437961,-0.784654 -0.504899,-0.911975 -0.138096,-0.262669 -0.4683,-0.584609 -0.670776,-0.653987 -0.07485,-0.02565 0.696445,-0.05212 1.713995,-0.05882 2.298232,-0.01513 2.410071,0.02232 3.070362,1.028247 0.23797,0.362539 0.47626,0.734258 0.52954,0.826042 0.0915,0.157645 0.10894,0.158423 0.31506,0.01405 0.45646,-0.319717 0.45495,-0.315608 -0.52905,1.43496 -0.2244,0.399217 -0.453167,0.755844 -0.508365,0.792507 -0.144533,0.096 -2.84724,0.08514 -2.907077,-0.01168 z"
         id="path43" /></g></g></svg>
